#!OML:ASF I:\Actors\actors\Patient Classification 2\Patient 1\Session 1\actor1.ASF
:FULLY-SPECIFIED
:DEGREES
525
root -0.607489 18.7681 5.82001 3.55566 -1.91164 -4.45441
lowerback 8.02724 1.47939 -1.20571
upperback 1.61828 1.89208 0.885435
thorax -2.89295 0.952532 1.39468
lowerneck -13.9237 -3.19276 -1.04252
upperneck 36.1115 -5.41004 2.47426
head 14.9915 -2.10851 0.316174
rclavicle 2.33572e-014 -9.54166e-015
rhumerus -27.461 35.6795 -82.9854
rradius 106.421
rwrist -13.118
rhand -13.4584 -30.1308
rfingers 7.12502
rthumb 12.6513 -419.728
lclavicle 2.33572e-014 -9.54166e-015
lhumerus -12.3944 -40.9591 82.6112
lradius 90.0202
lwrist 20.2933
lhand -14.2395 -49.71
lfingers 7.12502
lthumb 11.8981 -20.0681
rfemur 0 0 0
rtibia 0
rfoot 0 0
rtoes 0
lfemur -7.74323 -4.58662 -9.52804
ltibia 23.7267
lfoot -22.4611 12.9233
ltoes -55.7895
526
root -0.609987 18.766 5.83622 3.58738 -1.39028 -4.82657
lowerback 7.84035 1.35607 -0.826964
upperback 1.60551 1.76414 0.9741
thorax -2.78932 0.885915 1.29114
lowerneck -13.7568 -3.26637 -1.22793
upperneck 36.0392 -5.53762 2.68781
head 14.9374 -2.16188 0.419419
rclavicle -3.27001e-014 1.15295e-014
rhumerus -29.2105 34.1314 -83.2074
rradius 108.346
rwrist -16.8789
rhand -12.1384 -30.8513
rfingers 7.12502
rthumb 13.9236 -420.365
lclavicle -3.27001e-014 1.15295e-014
lhumerus -12.3655 -40.9216 82.64
lradius 90.2112
lwrist 19.9377
lhand -14.1874 -49.2857
lfingers 7.12502
lthumb 11.9484 -19.6467
rfemur 0 0 0
rtibia 0
rfoot 0 0
rtoes 0
lfemur -7.91892 -4.50054 -9.04097
ltibia 23.8382
lfoot -22.2938 12.4452
ltoes -55.914
527
root -0.613995 18.764 5.8436 3.54659 -0.940834 -4.99413
lowerback 7.86986 1.28807 -0.700908
upperback 1.56026 1.68602 1.02301
thorax -2.84805 0.846776 1.27764
lowerneck -13.5831 -3.3702 -1.40586
upperneck 36.0069 -5.69209 2.84055
head 14.8996 -2.23335 0.491758
rclavicle -2.64384e-014 -3.97569e-015
rhumerus -30.9593 32.4093 -83.2526
rradius 110.029
rwrist -20.6191
rhand -10.7291 -31.2845
rfingers 7.12502
rthumb 15.2814 -420.7
lclavicle -2.64384e-014 -3.97569e-015
lhumerus -12.3819 -40.9578 82.7471
lradius 90.3674
lwrist 19.692
lhand -14.1431 -48.7273
lfingers 7.12502
lthumb 11.9911 -19.0908
rfemur 0 0 0
rtibia 0
rfoot 0 0
rtoes 0
lfemur -8.03288 -4.50747 -8.7951
ltibia 23.9309
lfoot -22.1349 12.093
ltoes -55.9966
528
root -0.617473 18.7624 5.84618 3.48259 -0.505683 -5.06279
lowerback 7.9908 1.20659 -0.727812
upperback 1.52135 1.57808 1.0995
thorax -2.95539 0.794289 1.38006
lowerneck -13.4839 -3.46079 -1.66005
upperneck 36.0298 -5.80557 2.98643
head 14.9072 -2.2968 0.58008
rclavicle 3.3197e-014 6.36111e-015
rhumerus -32.5165 30.6591 -83.1291
rradius 111.244
rwrist -24.1723
rhand -9.15808 -31.4958
rfingers 7.12502
rthumb 16.7943 -420.789
lclavicle 3.3197e-014 6.36111e-015
lhumerus -12.3979 -40.8709 82.8923
lradius 90.4374
lwrist 19.4364
lhand -14.0652 -48.282
lfingers 7.12502
lthumb 12.0662 -18.6499
rfemur 0 0 0
rtibia 0
rfoot 0 0
rtoes 0
lfemur -8.16642 -4.57051 -8.66648
ltibia 24.0723
lfoot -22.0048 11.7737
ltoes -56.0549
529
root -0.618756 18.7603 5.8498 3.4101 -0.110342 -5.16136
lowerback 8.04435 1.10301 -0.704524
upperback 1.52755 1.44496 1.17762
thorax -2.97616 0.728309 1.46086
lowerneck -13.4165 -3.52745 -1.73243
upperneck 36.0253 -5.86429 2.93633
head 14.8918 -2.33938 0.56357
rclavicle 1.04362e-014 -3.97569e-016
rhumerus -33.8859 28.9554 -83.0876
rradius 112.04
rwrist -27.7696
rhand -7.48531 -31.9787
rfingers 7.12502
rthumb 18.404 -421.128
lclavicle 1.04362e-014 -3.97569e-016
lhumerus -12.4114 -40.6894 82.9632
lradius 90.4944
lwrist 19.0788
lhand -13.9894 -48.045
lfingers 7.12502
lthumb 12.1394 -18.4172
rfemur 0 0 0
rtibia 0
rfoot 0 0
rtoes 0
lfemur -8.2507 -4.7417 -8.52359
ltibia 24.1713
lfoot -21.9536 11.5803
ltoes -56.1452
530
root -0.61964 18.7587 5.8545 3.35879 0.222751 -5.25825
lowerback 8.43221 1.05562 -0.399895
upperback 1.25446 1.40697 1.07308
thorax -3.46373 0.708672 1.17624
lowerneck -13.0263 -3.63235 -1.65991
upperneck 36.0772 -6.03037 2.89686
head 14.8271 -2.41102 0.515286
rclavicle -1.25234e-014 -2.10712e-014
rhumerus -35.7556 27.1241 -83.5879
rradius 112.373
rwrist -31.5125
rhand -6.49622 -32.1651
rfingers 7.12502
rthumb 19.3553 -421.222
lclavicle -1.25234e-014 -2.10712e-014
lhumerus -12.9803 -40.9208 83.2077
lradius 90.63
lwrist 18.8412
lhand -13.9402 -47.8613
lfingers 7.12502
lthumb 12.1868 -18.2363
rfemur 0 0 0
rtibia 0
rfoot 0 0
rtoes 0
lfemur -8.31989 -4.96746 -8.39803
ltibia 24.2458
lfoot -21.9389 11.5028
ltoes -56.2058
531
root -0.621531 18.7579 5.85677 3.31206 0.546796 -5.31856
lowerback 8.49462 0.939159 -0.381699
upperback 1.21142 1.25622 1.12047
thorax -3.54011 0.634329 1.23092
lowerneck -12.8299 -3.65072 -1.70327
upperneck 35.9894 -6.00034 2.78881
head 14.7353 -2.42371 0.487278
rclavicle 2.06736e-014 1.82882e-014
rhumerus -36.9293 25.7068 -83.7943
rradius 112.361
rwrist -35.8278
rhand -6.33616 -32.706
rfingers 7.12502
rthumb 19.5092 -421.747
lclavicle 2.06736e-014 1.82882e-014
lhumerus -13.2028 -40.8529 83.2971
lradius 90.7626
lwrist 18.6855
lhand -13.9414 -47.7912
lfingers 7.12502
lthumb 12.1856 -18.1662
rfemur 0 0 0
rtibia 0
rfoot 0 0
rtoes 0
lfemur -8.39107 -5.15666 -8.30715
ltibia 24.3014
lfoot -21.8648 11.3583
ltoes -56.1407
532
root -0.621345 18.7576 5.85823 3.27564 0.894002 -5.29877
lowerback 8.18153 0.748842 -0.649195
upperback 1.41982 0.984306 1.30173
thorax -3.15058 0.500917 1.60479
lowerneck -12.9124 -3.61544 -1.80553
upperneck 35.8443 -5.8294 2.56738
head 14.6735 -2.39611 0.439978
rclavicle 2.0276e-014 0
rhumerus -37.4211 24.6704 -83.7173
rradius 112.11
rwrist -40.7376
rhand -6.61383 -33.3579
rfingers 7.12502
rthumb 19.2422 -422.426
lclavicle 2.0276e-014 0
lhumerus -12.9877 -40.4583 83.22
lradius 90.8284
lwrist 18.5189
lhand -14.0291 -47.8313
lfingers 7.12502
lthumb 12.1011 -18.2012
rfemur 0 0 0
rtibia 0
rfoot 0 0
rtoes 0
lfemur -8.46058 -5.3856 -8.30714
ltibia 24.3273
lfoot -21.8089 11.2201
ltoes -56.0595
533
root -0.619152 18.7571 5.85981 3.26648 1.13553 -5.22135
lowerback 8.18445 0.634068 -0.721679
upperback 1.38086 0.826516 1.32073
thorax -3.18855 0.423828 1.6822
lowerneck -12.8296 -3.63347 -1.89542
upperneck 35.9149 -5.81464 2.51075
head 14.6881 -2.41031 0.436386
rclavicle -2.127e-014 -7.55382e-015
rhumerus -38.3029 23.5036 -84.0337
rradius 111.847
rwrist -45.9387
rhand -6.90537 -33.8888
rfingers 7.12502
rthumb 18.9618 -422.985
lclavicle -2.127e-014 -7.55382e-015
lhumerus -13.1831 -40.3594 83.357
lradius 90.8686
lwrist 18.4362
lhand -14.0836 -47.78
lfingers 7.12502
lthumb 12.0485 -18.1469
rfemur 0 0 0
rtibia 0
rfoot 0 0
rtoes 0
lfemur -8.50911 -5.55693 -8.3854
ltibia 24.3306
lfoot -21.7952 11.1604
ltoes -56.0393
534
root -0.617573 18.7553 5.85908 3.24279 1.17491 -5.17272
lowerback 8.18334 0.587841 -0.811221
upperback 1.37171 0.758641 1.35689
thorax -3.19666 0.391332 1.77746
lowerneck -12.7559 -3.64719 -1.99521
upperneck 35.9563 -5.8046 2.49537
head 14.6935 -2.42257 0.450564
rclavicle -1.48095e-014 -5.96354e-015
rhumerus -38.8574 22.4102 -84.3597
rradius 111.383
rwrist -50.7263
rhand -7.19611 -34.141
rfingers 7.12502
rthumb 18.6822 -423.264
lclavicle -1.48095e-014 -5.96354e-015
lhumerus -13.3515 -40.1957 83.5265
lradius 90.8847
lwrist 18.3945
lhand -14.0442 -47.6629
lfingers 7.12502
lthumb 12.0865 -18.032
rfemur 0 0 0
rtibia 0
rfoot 0 0
rtoes 0
lfemur -8.49431 -5.62278 -8.44324
ltibia 24.3303
lfoot -21.8299 11.1484
ltoes -55.9556
535
root -0.615616 18.7534 5.85735 3.19361 1.11956 -5.15608
lowerback 8.17934 0.583023 -0.894633
upperback 1.40171 0.746853 1.41656
thorax -3.16479 0.386206 1.88767
lowerneck -12.6691 -3.68991 -2.10261
upperneck 35.8907 -5.8263 2.46845
head 14.6461 -2.45251 0.456605
rclavicle -6.55989e-015 8.74653e-015
rhumerus -39.0716 21.2591 -84.5324
rradius 110.862
rwrist -54.7025
rhand -7.39836 -34.7625
rfingers 7.12502
rthumb 18.4877 -423.904
lclavicle -6.55989e-015 8.74653e-015
lhumerus -13.4608 -40.0023 83.7103
lradius 90.8944
lwrist 18.3119
lhand -13.9461 -47.672
lfingers 7.12502
lthumb 12.1811 -18.0466
rfemur 0 0 0
rtibia 0
rfoot 0 0
rtoes 0
lfemur -8.43418 -5.58591 -8.47017
ltibia 24.3264
lfoot -21.8405 11.1402
ltoes -55.9622
